<?xml version="1.0" standalone="no"?>
<!DOCTYPE svg PUBLIC "-//W3C//DTD SVG 20010904//EN"
 "http://www.w3.org/TR/2001/REC-SVG-20010904/DTD/svg10.dtd">
<svg version="1.0" xmlns="http://www.w3.org/2000/svg"
 width="24.000000pt" height="24.000000pt" viewBox="0 0 24.000000 24.000000"
 preserveAspectRatio="xMidYMid meet">
<metadata>
Created by potrace 1.16, written by Peter Selinger 2001-2019
</metadata>
<g transform="translate(0.000000,24.000000) scale(0.100000,-0.100000)"
fill="#000000" stroke="none">
<path d="M70 229 c0 -5 -4 -7 -10 -4 -9 6 -14 -7 -11 -27 0 -4 -5 -5 -13 -2
-16 6 -21 0 -30 -38 l-6 -28 120 0 c73 0 120 4 120 10 0 6 -27 10 -60 10 -46
0 -60 3 -60 14 0 11 12 14 48 13 66 -3 70 17 5 21 -60 3 -73 22 -15 22 27 0
33 3 22 10 -20 13 -110 13 -110 -1z"/>
</g>
</svg>
